# xmcd
# Track frame offsets:
# 150
# 14496
# 30626
# 47023
# 63733
# 78851
# 93851
# 108332
# 123570
# 138985
# 153695
# 170938
# 184339
# 203197
# 215090
#
# Disc length: 3065 seconds
# Revision: 0
# Processed by: cddbd v1.5.1PL0 Copyright (c) Steve Scherf et al.
# Submitted via: VisiTrax 2.9.10.228 - For more info visit www.synapsa.com
#
DISCID=dc0bf70f
DTITLE=Shenandoah - CB90033
DYEAR=1900
DGENRE=Karaoke
TTITLE0=Church On Cumberland Road
TTITLE1=Two Dozen Roses
TTITLE2=Next To You, Next To Me
TTITLE3=Ghost In The House
TTITLE4=I Got You
TTITLE5=Moon Over Georgia, The
TTITLE6=When You Were Mine
TTITLE7=Rock My Baby
TTITLE8=Leavin's Been A Long Time Coming
TTITLE9=Janie Baker's Love Slave
TTITLE10=I Want To Be Loved Like That
TTITLE11=If Bubba Can Dance
TTITLE12=Somewhere In The Vicinity Of The Heart
TTITLE13=Darned If I Don't Danged If I Do
TTITLE14=Heaven Bound
EXTD=
EXTT0=
EXTT1=
EXTT2=
EXTT3=
EXTT4=
EXTT5=
EXTT6=
EXTT7=
EXTT8=
EXTT9=
EXTT10=
EXTT11=
EXTT12=
EXTT13=
EXTT14=
PLAYORDER=
